<?xml version="1.0" encoding="utf-8"?>
<!-- Generator: Adobe Illustrator 27.6.0, SVG Export Plug-In . SVG Version: 6.00 Build 0)  -->
<svg version="1.1" id="Layer_1" xmlns="http://www.w3.org/2000/svg" xmlns:xlink="http://www.w3.org/1999/xlink" x="0px" y="0px"
	 viewBox="0 0 128 128" style="enable-background:new 0 0 128 128;" xml:space="preserve">
<style type="text/css">
	.st0{fill:#9945FF;fill-opacity:0.3;}
	.st1{fill:#14F195;}
	.st2{fill:#14F195;fill-opacity:0.5;}
</style>
<path class="st0" d="M59.5,91.2V38.1H43.1v-10h37.2v10H69.6v53.1c0,5.2,4.3,9.4,9.4,9.4h1.3v10H79C68.2,110.7,59.5,102,59.5,91.2z"
	/>
<path class="st1" d="M48.2,17.6L34.6,4.1c-0.4-0.4-0.9-0.6-1.4-0.6H10c-1,0-2,0.4-2.7,1.1C6.6,5.4,6.2,6.3,6.2,7.4v42.5
	c0,1,0.4,2,1.1,2.7C8,53.4,9,53.8,10,53.8h34.8c1,0,2-0.4,2.7-1.1c0.7-0.7,1.1-1.7,1.1-2.7V19C48.7,18.5,48.5,18,48.2,17.6
	L48.2,17.6z M33.2,19V8.3L43.9,19H33.2z"/>
<path class="st2" d="M122.1,17.6L108.5,4.1c-0.4-0.4-0.9-0.6-1.4-0.6H83.9c-1,0-2,0.4-2.7,1.1c-0.7,0.7-1.1,1.7-1.1,2.7v42.5
	c0,1,0.4,2,1.1,2.7c0.7,0.7,1.7,1.1,2.7,1.1h34.8c1,0,2-0.4,2.7-1.1c0.7-0.7,1.1-1.7,1.1-2.7V19C122.6,18.5,122.4,18,122.1,17.6
	L122.1,17.6z M107.2,19V8.3L117.8,19H107.2z"/>
<path class="st2" d="M122.1,88l-13.5-13.5c-0.4-0.4-0.9-0.6-1.4-0.6H83.9c-1,0-2,0.4-2.7,1.1c-0.7,0.7-1.1,1.7-1.1,2.7v42.5
	c0,1,0.4,2,1.1,2.7c0.7,0.7,1.7,1.1,2.7,1.1h34.8c1,0,2-0.4,2.7-1.1c0.7-0.7,1.1-1.7,1.1-2.7V89.3C122.6,88.8,122.4,88.3,122.1,88
	L122.1,88z M107.2,89.3V78.7l10.6,10.6H107.2z"/>
</svg>
